<svg width="162" height="48" viewBox="0 0 162 48" fill="none" xmlns="http://www.w3.org/2000/svg">
<rect y="0.893555" width="162" height="46.5591" rx="3.18898" fill="#94AFB6"/>
<path d="M12.9379 22.2327C12.5841 21.9074 12.7763 21.3193 13.2548 21.2628L20.0355 20.4631C20.2305 20.4401 20.3999 20.3184 20.4821 20.141L23.3421 13.9758C23.544 13.5407 24.166 13.5406 24.3679 13.9757L27.2278 20.1409C27.3101 20.3182 27.4784 20.4403 27.6734 20.4633L34.4544 21.2628C34.933 21.3193 35.1246 21.9076 34.7708 22.2329L29.7583 26.8429C29.6141 26.9755 29.5499 27.1729 29.5882 27.3644L30.9185 34.0237C31.0124 34.4937 30.5094 34.8578 30.0889 34.6238L24.1308 31.3067C23.9594 31.2113 23.7512 31.2117 23.5798 31.3071L17.6211 34.6229C17.2006 34.857 16.6966 34.4936 16.7905 34.0237L18.1211 27.3648C18.1593 27.1733 18.0953 26.9755 17.9511 26.8429L12.9379 22.2327Z" fill="#EAF0F2"/>
<path d="M41.2784 22.2327C40.9171 21.9074 41.1134 21.3193 41.6021 21.2628L48.527 20.4631C48.7262 20.4401 48.8992 20.3184 48.9832 20.141L51.904 13.9758C52.1101 13.5407 52.7455 13.5406 52.9516 13.9757L55.8724 20.1409C55.9564 20.3182 56.1283 20.4403 56.3275 20.4633L63.2528 21.2628C63.7415 21.3193 63.9372 21.9076 63.5759 22.2329L58.4567 26.8429C58.3094 26.9755 58.2439 27.1729 58.283 27.3644L59.6416 34.0237C59.7375 34.4937 59.2238 34.8578 58.7943 34.6238L52.7094 31.3067C52.5344 31.2113 52.3218 31.2117 52.1468 31.3071L46.0612 34.6229C45.6318 34.857 45.1171 34.4936 45.213 34.0237L46.5719 27.3648C46.611 27.1733 46.5456 26.9755 46.3983 26.8429L41.2784 22.2327Z" fill="#EAF0F2"/>
<path d="M70.0835 22.2327C69.7297 21.9074 69.9219 21.3193 70.4004 21.2628L77.181 20.4631C77.3761 20.4401 77.5455 20.3184 77.6277 20.141L80.4877 13.9758C80.6895 13.5407 81.3116 13.5406 81.5135 13.9757L84.3734 20.1409C84.4557 20.3182 84.624 20.4403 84.819 20.4633L91.6 21.2628C92.0785 21.3193 92.2702 21.9076 91.9164 22.2329L86.9039 26.8429C86.7597 26.9755 86.6955 27.1729 86.7337 27.3644L88.0641 34.0237C88.158 34.4937 87.655 34.8578 87.2345 34.6238L81.2763 31.3067C81.105 31.2113 80.8968 31.2117 80.7254 31.3071L74.7666 34.6229C74.3461 34.857 73.8422 34.4936 73.9361 34.0237L75.2666 27.3648C75.3049 27.1733 75.2409 26.9755 75.0967 26.8429L70.0835 22.2327Z" fill="#EAF0F2"/>
<path d="M98.424 22.2327C98.0627 21.9074 98.2589 21.3193 98.7477 21.2628L105.673 20.4631C105.872 20.4401 106.045 20.3184 106.129 20.141L109.05 13.9758C109.256 13.5407 109.891 13.5406 110.097 13.9757L113.018 20.1409C113.102 20.3182 113.274 20.4403 113.473 20.4633L120.398 21.2628C120.887 21.3193 121.083 21.9076 120.721 22.2329L115.602 26.8429C115.455 26.9755 115.389 27.1729 115.429 27.3644L116.787 34.0237C116.883 34.4937 116.369 34.8578 115.94 34.6238L109.855 31.3067C109.68 31.2113 109.467 31.2117 109.292 31.3071L103.207 34.6229C102.777 34.857 102.263 34.4936 102.359 34.0237L103.717 27.3648C103.757 27.1733 103.691 26.9755 103.544 26.8429L98.424 22.2327Z" fill="#EAF0F2"/>
<path d="M127.229 22.2327C126.875 21.9074 127.067 21.3193 127.546 21.2628L134.327 20.4631C134.522 20.4401 134.691 20.3184 134.773 20.141L137.633 13.9758C137.835 13.5407 138.457 13.5406 138.659 13.9757L141.519 20.1409C141.601 20.3182 141.77 20.4403 141.965 20.4633L148.746 21.2628C149.224 21.3193 149.416 21.9076 149.062 22.2329L144.049 26.8429C143.905 26.9755 143.841 27.1729 143.879 27.3644L145.21 34.0237C145.304 34.4937 144.801 34.8578 144.38 34.6238L138.422 31.3067C138.251 31.2113 138.042 31.2117 137.871 31.3071L131.912 34.6229C131.492 34.857 130.988 34.4936 131.082 34.0237L132.412 27.3648C132.45 27.1733 132.386 26.9755 132.242 26.8429L127.229 22.2327Z" fill="#EAF0F2"/>
</svg>
