<svg width="124" height="137" viewBox="0 0 124 137" fill="none" xmlns="http://www.w3.org/2000/svg">
<path d="M3.56689 29.1706L23.0663 3.17139H101.064L120.564 29.1706M3.56689 29.1706V120.168C3.56689 123.616 4.93649 126.922 7.3744 129.36C9.8123 131.798 13.1188 133.168 16.5665 133.168H107.564C111.012 133.168 114.318 131.798 116.756 129.36C119.194 126.922 120.564 123.616 120.564 120.168V29.1706M3.56689 29.1706H120.564M88.0645 55.1699C88.0645 62.0653 85.3253 68.6783 80.4495 73.5541C75.5737 78.4299 68.9606 81.1691 62.0652 81.1691C55.1698 81.1691 48.5568 78.4299 43.681 73.5541C38.8052 68.6783 36.066 62.0653 36.066 55.1699" stroke="#AF9979" stroke-width="6" stroke-linecap="round" stroke-linejoin="round"/>
</svg>
