<svg width="124" height="153" viewBox="0 0 124 153" fill="none" xmlns="http://www.w3.org/2000/svg">
<path d="M91.3144 47.0202H47.4406C43.562 47.0202 39.8421 48.561 37.0995 51.3037C34.3569 54.0463 32.8161 57.7661 32.8161 61.6448C32.8161 65.5235 34.3569 69.2433 37.0995 71.9859C39.8421 74.7286 43.562 76.2694 47.4406 76.2694H76.6898C80.5685 76.2694 84.2883 77.8102 87.0309 80.5528C89.7736 83.2955 91.3144 87.0153 91.3144 90.894C91.3144 94.7726 89.7736 98.4925 87.0309 101.235C84.2883 103.978 80.5685 105.519 76.6898 105.519H32.8161M62.0652 116.487V36.0518M3.56689 3.14648V149.392L18.1915 142.08L32.8161 149.392L47.4406 142.08L62.0652 149.392L76.6898 142.08L91.3144 149.392L105.939 142.08L120.564 149.392V3.14648L105.939 10.4588L91.3144 3.14648L76.6898 10.4588L62.0652 3.14648L47.4406 10.4588L32.8161 3.14648L18.1915 10.4588L3.56689 3.14648Z" stroke="#AF9979" stroke-width="6" stroke-linecap="round" stroke-linejoin="round"/>
</svg>
