<svg width="124" height="137" viewBox="0 0 124 137" fill="none" xmlns="http://www.w3.org/2000/svg">
<path d="M63.2801 3.17139H60.4202C56.9725 3.17139 53.666 4.54099 51.2281 6.97889C48.7901 9.41679 47.4205 12.7233 47.4205 16.171V17.341C47.4182 19.6206 46.8164 21.8596 45.6756 23.8332C44.5348 25.8069 42.895 27.4458 40.9207 28.5857L38.1258 30.2106C36.1496 31.3516 33.9079 31.9522 31.626 31.9522C29.3441 31.9522 27.1024 31.3516 25.1262 30.2106L24.1512 29.6906C21.1682 27.9699 17.6243 27.5031 14.2975 28.3927C10.9707 29.2823 8.13276 31.4556 6.40673 34.4355L4.97677 36.9054C3.25603 39.8884 2.78922 43.4323 3.67881 46.7591C4.5684 50.086 6.7417 52.9239 9.72163 54.6499L10.6966 55.2999C12.6613 56.4342 14.295 58.0629 15.4353 60.0242C16.5756 61.9854 17.1827 64.211 17.1964 66.4796V69.7945C17.2055 72.0851 16.6092 74.3375 15.4678 76.3236C14.3263 78.3096 12.6804 79.9588 10.6966 81.1041L9.72163 81.6891C6.7417 83.4152 4.5684 86.2531 3.67881 89.5799C2.78922 92.9067 3.25603 96.4506 4.97677 99.4336L6.40673 101.904C8.13276 104.883 10.9707 107.057 14.2975 107.946C17.6243 108.836 21.1682 108.369 24.1512 106.648L25.1262 106.128C27.1024 104.987 29.3441 104.387 31.626 104.387C33.9079 104.387 36.1496 104.987 38.1258 106.128L40.9207 107.753C42.895 108.893 44.5348 110.532 45.6756 112.506C46.8164 114.479 47.4182 116.718 47.4205 118.998V120.168C47.4205 123.616 48.7901 126.922 51.2281 129.36C53.666 131.798 56.9725 133.168 60.4202 133.168H63.2801C66.7278 133.168 70.0343 131.798 72.4722 129.36C74.9101 126.922 76.2797 123.616 76.2797 120.168V118.998C76.2821 116.718 76.8838 114.479 78.0247 112.506C79.1655 110.532 80.8053 108.893 82.7795 107.753L85.5744 106.128C87.5506 104.987 89.7924 104.387 92.0743 104.387C94.3562 104.387 96.5979 104.987 98.5741 106.128L99.549 106.648C102.532 108.369 106.076 108.836 109.403 107.946C112.73 107.057 115.568 104.883 117.294 101.904L118.723 99.3686C120.444 96.3856 120.911 92.8417 120.021 89.5149C119.132 86.1881 116.959 83.3502 113.979 81.6241L113.004 81.1041C111.02 79.9588 109.374 78.3096 108.233 76.3236C107.091 74.3375 106.495 72.0851 106.504 69.7945V66.5446C106.495 64.2539 107.091 62.0015 108.233 60.0154C109.374 58.0294 111.02 56.3802 113.004 55.2349L113.979 54.6499C116.959 52.9239 119.132 50.086 120.021 46.7591C120.911 43.4323 120.444 39.8884 118.723 36.9054L117.294 34.4355C115.568 31.4556 112.73 29.2823 109.403 28.3927C106.076 27.5031 102.532 27.9699 99.549 29.6906L98.5741 30.2106C96.5979 31.3516 94.3562 31.9522 92.0743 31.9522C89.7924 31.9522 87.5506 31.3516 85.5744 30.2106L82.7795 28.5857C80.8053 27.4458 79.1655 25.8069 78.0247 23.8332C76.8838 21.8596 76.2821 19.6206 76.2797 17.341V16.171C76.2797 12.7233 74.9101 9.41679 72.4722 6.97889C70.0343 4.54099 66.7278 3.17139 63.2801 3.17139Z" stroke="#AF9979" stroke-width="6" stroke-linecap="round" stroke-linejoin="round"/>
<path d="M61.8501 87.669C72.6194 87.669 81.3496 78.9388 81.3496 68.1695C81.3496 57.4003 72.6194 48.6701 61.8501 48.6701C51.0809 48.6701 42.3507 57.4003 42.3507 68.1695C42.3507 78.9388 51.0809 87.669 61.8501 87.669Z" stroke="#AF9979" stroke-width="6" stroke-linecap="round" stroke-linejoin="round"/>
</svg>
