<svg width="137" height="137" viewBox="0 0 137 137" fill="none" xmlns="http://www.w3.org/2000/svg">
<path d="M24.9783 104.286H111.623M104.403 133.167C106.318 133.167 108.154 132.407 109.508 131.052C110.862 129.698 111.623 127.862 111.623 125.947V87.3178C111.623 84.0181 113.905 81.2238 116.872 79.8014C123.017 76.8702 127.928 71.8629 130.74 65.663C133.552 59.4631 134.083 52.4693 132.24 45.9157C130.398 39.3622 126.299 33.6703 120.668 29.8445C115.037 26.0187 108.236 24.305 101.464 25.0058C98.6753 18.5234 94.0478 13.0004 88.1538 9.11974C82.2598 5.23908 75.3577 3.1709 68.3008 3.1709C61.244 3.1709 54.3418 5.23908 48.4478 9.11974C42.5538 13.0004 37.9263 18.5234 35.1375 25.0058C28.369 24.3099 21.5721 26.026 15.9453 29.8517C10.3184 33.6773 6.22283 39.3667 4.38072 45.9168C2.53862 52.4669 3.06824 59.457 5.8762 65.6548C8.68417 71.8526 13.5902 76.86 19.7292 79.7941C22.6968 81.2238 24.9784 84.0181 24.9784 87.3106V125.947C24.9784 127.862 25.7392 129.698 27.0932 131.052C28.4473 132.407 30.2839 133.167 32.1988 133.167H104.403Z" stroke="#AF9979" stroke-width="6" stroke-linecap="round" stroke-linejoin="round"/>
</svg>
