<svg width="124" height="124" viewBox="0 0 124 124" fill="none" xmlns="http://www.w3.org/2000/svg">
<path d="M20.821 85.3323V67.7489C20.821 66.1944 21.4385 64.7036 22.5376 63.6044C23.6368 62.5052 25.1276 61.8877 26.6821 61.8877H97.0157C98.5702 61.8877 100.061 62.5052 101.16 63.6044C102.259 64.7036 102.877 66.1944 102.877 67.7489V85.3323M61.8489 61.8877V38.4432M91.1546 85.3323H114.599C117.836 85.3323 120.46 87.9564 120.46 91.1934V114.638C120.46 117.875 117.836 120.499 114.599 120.499H91.1546C87.9176 120.499 85.2935 117.875 85.2935 114.638V91.1934C85.2935 87.9564 87.9176 85.3323 91.1546 85.3323ZM9.09868 85.3323H32.5432C35.7802 85.3323 38.4044 87.9564 38.4044 91.1934V114.638C38.4044 117.875 35.7802 120.499 32.5432 120.499H9.09868C5.86167 120.499 3.23755 117.875 3.23755 114.638V91.1934C3.23755 87.9564 5.86167 85.3323 9.09868 85.3323ZM50.1266 3.27637H73.5712C76.8082 3.27637 79.4323 5.90049 79.4323 9.1375V32.582C79.4323 35.8191 76.8082 38.4432 73.5712 38.4432H50.1266C46.8896 38.4432 44.2655 35.8191 44.2655 32.582V9.1375C44.2655 5.90049 46.8896 3.27637 50.1266 3.27637Z" stroke="#AF9979" stroke-width="6" stroke-linecap="round" stroke-linejoin="round"/>
</svg>
