<svg width="137" height="125" viewBox="0 0 137 125" fill="none" xmlns="http://www.w3.org/2000/svg">
<path d="M61.8669 94.2901L74.8684 107.292C76.149 108.572 77.6692 109.588 79.3423 110.281C81.0154 110.974 82.8086 111.331 84.6195 111.331C86.4305 111.331 88.2237 110.974 89.8968 110.281C91.5699 109.588 93.0901 108.572 94.3707 107.292C95.6512 106.011 96.667 104.491 97.36 102.818C98.053 101.145 98.4097 99.3514 98.4097 97.5405C98.4097 95.7295 98.053 93.9363 97.36 92.2632C96.667 90.5901 95.6512 89.0699 94.3707 87.7894M81.3691 74.7879L97.6209 91.0398C100.207 93.626 103.715 95.0789 107.372 95.0789C111.029 95.0789 114.537 93.626 117.123 91.0398C119.709 88.4537 121.162 84.9461 121.162 81.2887C121.162 77.6313 119.709 74.1237 117.123 71.5376L91.9003 46.3146C88.2436 42.6625 83.2868 40.6111 78.1187 40.6111C72.9506 40.6111 67.9938 42.6625 64.3371 46.3146L58.6164 52.0353C56.0303 54.6215 52.5227 56.0744 48.8653 56.0744C45.2079 56.0744 41.7003 54.6215 39.1141 52.0353C36.528 49.4491 35.0751 45.9416 35.0751 42.2842C35.0751 38.6268 36.528 35.1192 39.1141 32.533L57.3813 14.2659C63.3115 8.35117 71.0452 4.58338 79.358 3.55899C87.6708 2.53461 96.0878 4.31216 103.277 8.61026L106.332 10.4305C109.1 12.1011 112.391 12.6805 115.563 12.0557L126.874 9.7804M126.874 3.27954L133.375 74.7878H120.374M9.86086 3.27954L3.36011 74.7878L45.615 117.043C48.2012 119.629 51.7088 121.082 55.3661 121.082C59.0235 121.082 62.5311 119.629 65.1173 117.043C67.7034 114.457 69.1563 110.949 69.1563 107.292C69.1563 103.634 67.7034 100.127 65.1173 97.5405M9.86086 9.7803H61.8669" stroke="#AF9979" stroke-width="6" stroke-linecap="round" stroke-linejoin="round"/>
</svg>
