<svg width="38" height="38" viewBox="0 0 38 38" fill="none" xmlns="http://www.w3.org/2000/svg">
<path d="M0.200439 37.2772L2.84768 27.4428C0.712747 23.6118 0.0344571 19.1414 0.937279 14.8519C1.8401 10.5623 4.26348 6.7414 7.76271 4.09023C11.2619 1.43905 15.6023 0.135476 19.9874 0.418701C24.3724 0.701926 28.508 2.55296 31.6352 5.63212C34.7624 8.71129 36.6716 12.8121 37.0122 17.1819C37.3529 21.5518 36.1023 25.8976 33.4898 29.422C30.8774 32.9463 27.0784 35.4128 22.7899 36.3687C18.5015 37.3247 14.0113 36.706 10.1432 34.6263L0.200439 37.2772ZM10.6227 30.9462L11.2376 31.31C14.0393 32.9664 17.3116 33.6519 20.5447 33.2596C23.7777 32.8672 26.7898 31.4192 29.1117 29.141C31.4335 26.8629 32.9345 23.8826 33.381 20.6647C33.8274 17.4467 33.194 14.1719 31.5797 11.3505C29.9653 8.52903 27.4606 6.31952 24.4558 5.06623C21.4511 3.81295 18.1151 3.5863 14.9677 4.42161C11.8203 5.25692 9.03839 7.10726 7.05538 9.68428C5.07238 12.2613 3.99971 15.4203 4.00455 18.6688C4.00191 21.3625 4.74876 24.004 6.16195 26.2993L6.54757 26.9334L5.06761 32.4224L10.6227 30.9462Z" fill="#00D95F"/>
<path fill-rule="evenodd" clip-rule="evenodd" d="M25.547 21.1941C25.1865 20.904 24.7644 20.6999 24.3129 20.5972C23.8614 20.4946 23.3923 20.496 22.9414 20.6015C22.264 20.8822 21.8262 21.9425 21.3885 22.4727C21.2962 22.5998 21.1606 22.689 21.0071 22.7234C20.8536 22.7579 20.6927 22.7353 20.5547 22.6598C18.0746 21.6909 15.9957 19.9141 14.6558 17.6179C14.5415 17.4746 14.4874 17.2927 14.5049 17.1104C14.5224 16.9282 14.6101 16.7598 14.7496 16.6407C15.2378 16.1586 15.5962 15.5615 15.7918 14.9047C15.8352 14.1801 15.6688 13.4584 15.3124 12.8255C15.0368 11.9383 14.5124 11.1483 13.8011 10.5489C13.4343 10.3843 13.0275 10.3291 12.6299 10.39C12.2323 10.4508 11.8608 10.6252 11.5604 10.8919C11.0387 11.3408 10.6246 11.9008 10.3487 12.5305C10.0727 13.1602 9.94185 13.8436 9.96576 14.5304C9.96737 14.9161 10.0164 15.3001 10.1117 15.6739C10.3537 16.572 10.7259 17.4301 11.2164 18.2209C11.5704 18.8267 11.9565 19.4131 12.3733 19.9778C13.7277 21.8323 15.4302 23.407 17.3864 24.6142C18.368 25.2277 19.4171 25.7265 20.513 26.1008C21.6515 26.6156 22.9084 26.8131 24.1504 26.6726C24.858 26.5658 25.5285 26.2871 26.1028 25.8611C26.6771 25.4351 27.1376 24.8748 27.4438 24.2296C27.6237 23.8398 27.6784 23.4041 27.6002 22.9821C27.4126 22.1193 26.2557 21.6099 25.547 21.1941Z" fill="#00D95F"/>
</svg>
