<svg width="44" height="44" viewBox="0 0 44 44" fill="none" xmlns="http://www.w3.org/2000/svg">
<path d="M17.4167 25.2084C17.4167 26.9867 18.7917 28.4167 20.4784 28.4167H23.925C25.3917 28.4167 26.5834 27.17 26.5834 25.6117C26.5834 23.9434 25.85 23.3384 24.7684 22.9534L19.25 21.0284C18.1684 20.6434 17.435 20.0567 17.435 18.37C17.435 16.83 18.6267 15.565 20.0933 15.565H23.54C25.2267 15.565 26.6017 16.995 26.6017 18.7734M22 13.75V30.25M40.3334 22C40.3334 32.12 32.12 40.3334 22 40.3334C11.88 40.3334 3.66669 32.12 3.66669 22C3.66669 11.88 11.88 3.66669 22 3.66669M31.1667 5.50002V12.8334M31.1667 12.8334H38.5M31.1667 12.8334L40.3334 3.66669" stroke="#F9FAF4" stroke-width="2" stroke-linecap="round" stroke-linejoin="round"/>
</svg>
