<svg width="67" height="67" viewBox="0 0 67 67" fill="none" xmlns="http://www.w3.org/2000/svg">
<path d="M43.8338 26.6108L30.0558 40.3888L23.1668 33.4998M37.7925 4.08031L41.9981 7.66431C43.0577 8.56724 44.3732 9.11312 45.7609 9.22386L51.2688 9.66282C54.5071 9.92124 57.0793 12.4918 57.3377 15.7301L57.7756 21.2389C57.8864 22.6266 58.4342 23.944 59.3371 25.0036L62.9195 29.208C65.0266 31.6806 65.0269 35.3176 62.9199 37.7901L59.3374 41.9952C58.4345 43.0548 57.8874 44.3727 57.7767 45.7604L57.336 51.2683C57.0776 54.5066 54.5094 57.0788 51.2711 57.3372L45.7613 57.7768C44.3736 57.8876 43.0568 58.432 41.9972 59.3349L37.7925 62.919C35.32 65.0261 31.6807 65.0265 29.2082 62.9195L25.0035 59.3353C23.9439 58.4323 22.6271 57.8869 21.2394 57.7762L15.7295 57.3372C12.4913 57.0788 9.92308 54.5072 9.66466 51.269L9.22401 45.7608C9.11327 44.3731 8.56616 43.0563 7.66322 41.9967L4.08081 37.7903C1.97372 35.3178 1.97273 31.6819 4.07982 29.2094L7.66546 25.003C8.56839 23.9434 9.11025 22.6266 9.22099 21.2389L9.66164 15.7307C9.92005 12.4924 12.4956 9.92091 15.7339 9.66249L21.2377 9.22352C22.6254 9.11278 23.9429 8.56734 25.0024 7.66441L29.2085 4.08031C31.6811 1.97323 35.32 1.97323 37.7925 4.08031Z" stroke="#27505B" stroke-width="4" stroke-linecap="round" stroke-linejoin="round"/>
</svg>
