<?xml version="1.0" encoding="UTF-8"?>
<svg id="Camada_2" xmlns="http://www.w3.org/2000/svg" viewBox="0 0 164 33.59">
  <defs>
    <style>
      .cls-1 {
        fill-rule: evenodd;
      }

      .cls-1, .cls-2 {
        fill: #0b2d4d;
      }

      .cls-3 {
        fill: #083661;
      }
    </style>
  </defs>
  <g id="Camada_1-2" data-name="Camada_1">
    <g>
      <g>
        <path class="cls-2" d="M158.09,13.85h3.47v-5.96h-3.47v5.96ZM162.79,16.06h-5.94c-.33,0-.62-.1-.86-.31-.24-.21-.36-.47-.36-.78V6.77c0-.3.12-.56.36-.77.24-.21.52-.32.86-.32h5.94c.33,0,.62.11.86.32.24.21.36.47.36.77v8.2c0,.32-.12.58-.36.78-.24.21-.52.31-.86.31ZM151.17,9.22v-1.31h-2.97v5.96h2.97v-1.31h2.45v2.4c0,.32-.12.58-.36.78-.24.21-.53.31-.88.31h-5.39c-.35,0-.64-.1-.87-.31-.23-.21-.34-.47-.34-.78V6.79c0-.32.11-.58.34-.8.23-.21.52-.32.87-.32h5.39c.35,0,.64.11.88.32.24.21.36.48.36.8v2.42h-2.45ZM144.26,5.68v10.38h-2.14l-4.66-7.03v7.03h-2.42V5.68h3.49l3.28,4.99v-4.99h2.45ZM132.83,16.06h-2.45V5.68h2.45v10.38ZM120.52,5.68h7.46v1.92l-4.3,6.25h4.3v2.21h-7.46v-2.28l4.18-5.89h-4.18v-2.21ZM111.19,5.68v8.17h4.56v2.21h-7.03V5.68h2.47ZM102.62,7.89l-1.19,3.49h2.35l-1.16-3.49ZM105.35,16.06l-.81-2.45h-3.85l-.83,2.45h-2.52l3.4-10.36h3.73l3.4,10.36h-2.52ZM95.96,16.06h-2.45V5.68h2.45v10.38ZM88.69,7.91h-3.35v5.96h3.35v-5.96ZM89.93,5.68c.33,0,.62.11.86.32.24.21.36.48.36.8v8.17c0,.32-.12.58-.36.78-.24.21-.52.31-.86.31h-7.01V5.68h7.01ZM81.21,5.68v10.38h-2.14l-4.66-7.03v7.03h-2.42V5.68h3.49l3.28,4.99v-4.99h2.45ZM68.62,16.06h-5.96c-.35,0-.64-.1-.88-.31-.24-.21-.36-.47-.36-.78V5.65h2.47v8.2h3.49V5.65h2.47v9.31c0,.32-.12.58-.36.78-.24.21-.53.31-.88.31ZM55.69,5.68h3.78v10.38h-2.42V7.93l-2.33,4.35h-1.57l-2.33-4.35.02,8.13h-2.45V5.68h3.78l1.76,2.68,1.76-2.68Z"/>
        <path class="cls-3" d="M119.35,23.21c-.33,0-.59.11-.79.32-.2.22-.31.53-.35.94h2.1c0-.4-.09-.7-.26-.93-.17-.22-.41-.33-.71-.33M119.44,26.47c-.49,0-.88-.15-1.15-.46-.28-.3-.41-.73-.41-1.28s.13-.98.4-1.3c.27-.33.63-.49,1.08-.49.4,0,.72.14.95.42.23.28.35.65.35,1.13v.25h-2.45c0,.47.11.83.33,1.07.21.25.52.37.92.37.19,0,.36-.01.51-.04.15-.03.33-.09.56-.17v.28c-.19.08-.37.14-.53.17-.16.03-.34.05-.54.05ZM116.58,22.06c0-.2.07-.3.2-.3.06,0,.11.03.15.08.04.05.05.13.05.22s-.02.17-.05.22c-.04.05-.09.08-.15.08-.13,0-.2-.1-.2-.3ZM116.93,26.4h-.31v-3.4h.31v3.4ZM114.94,26.47c-.48,0-.86-.15-1.14-.46-.28-.31-.41-.73-.41-1.28s.14-1,.43-1.31c.28-.31.68-.47,1.17-.47.29,0,.57.05.84.15l-.08.28c-.29-.1-.55-.15-.77-.15-.42,0-.73.13-.95.39-.21.26-.32.63-.32,1.11,0,.46.11.82.32,1.08.21.26.51.39.9.39.31,0,.59-.06.86-.17v.29c-.22.11-.5.16-.85.16ZM111.9,22.48c.15-.16.3-.34.45-.54.15-.19.25-.34.3-.44h.44v.05c-.07.11-.2.25-.38.43-.18.18-.38.36-.59.54h-.22v-.05ZM112.45,26.4h-.31v-3.4h.31v3.4ZM111.49,23.27h-.8v3.13h-.31v-3.13h-.63v-.18l.63-.12v-.26c0-.42.08-.72.23-.92.15-.19.4-.29.75-.29.19,0,.38.03.56.08l-.07.26c-.17-.05-.33-.08-.5-.08-.24,0-.41.07-.51.21-.1.14-.15.38-.15.7v.32h.8v.27ZM109.07,22.94c.14,0,.3.01.46.04l-.06.3c-.14-.04-.29-.05-.44-.05-.29,0-.53.12-.71.37-.19.25-.28.56-.28.93v1.87h-.31v-3.4h.26l.03.61h.02c.14-.25.29-.43.45-.53.16-.1.35-.15.57-.15ZM105.5,23.21c-.33,0-.59.11-.79.32-.2.22-.31.53-.35.94h2.1c0-.4-.09-.7-.26-.93-.17-.22-.41-.33-.71-.33ZM105.6,26.47c-.49,0-.88-.15-1.15-.46-.28-.3-.41-.73-.41-1.28s.13-.98.4-1.3c.27-.33.63-.49,1.08-.49.4,0,.72.14.95.42.23.28.35.65.35,1.13v.25h-2.45c0,.47.11.83.33,1.07.21.25.52.37.92.37.19,0,.36-.01.51-.04.15-.03.33-.09.56-.17v.28c-.19.08-.37.14-.53.17-.16.03-.34.05-.54.05ZM101.86,26.2c.35,0,.62-.13.81-.39.19-.26.29-.62.29-1.09,0-1-.36-1.5-1.08-1.5-.4,0-.69.11-.87.33-.19.22-.28.57-.28,1.07v.1c0,.53.09.91.27,1.14.18.23.47.34.87.34ZM101.87,26.47c-.52,0-.9-.2-1.14-.59h-.02v.26c.02.15.02.32.02.51v1.29h-.31v-4.93h.26l.06.49h.02c.23-.37.61-.55,1.12-.55.46,0,.81.15,1.05.45.24.3.36.74.36,1.31s-.13.99-.38,1.3c-.25.31-.6.46-1.03.46ZM96.91,23.01v2.2c0,.34.07.59.22.75.14.15.37.23.67.23.4,0,.7-.1.89-.31.19-.2.29-.54.29-1v-1.87h.31v3.4h-.26l-.06-.47h-.02c-.22.36-.61.53-1.18.53-.77,0-1.16-.41-1.16-1.24v-2.22h.31ZM95.76,25.23c0,.38-.14.68-.42.9-.28.22-.65.33-1.12.33-.56,0-.99-.06-1.28-.18v-.32c.33.14.75.21,1.26.21.38,0,.67-.09.89-.26.22-.17.33-.4.33-.68,0-.17-.04-.32-.11-.43-.07-.11-.19-.22-.36-.31-.16-.09-.41-.2-.72-.3-.47-.16-.79-.33-.97-.52-.18-.19-.27-.44-.27-.75,0-.34.13-.62.4-.84.27-.22.61-.32,1.03-.32s.83.08,1.21.24l-.12.28c-.38-.16-.74-.24-1.09-.24s-.61.08-.81.23c-.2.16-.3.37-.3.64,0,.17.03.31.09.42.06.11.16.21.3.29.14.09.38.19.72.31.36.12.62.24.8.36.18.11.31.25.39.39.08.15.12.32.12.53ZM89.27,23.21c-.33,0-.59.11-.79.32-.2.22-.31.53-.35.94h2.1c0-.4-.09-.7-.26-.93-.17-.22-.41-.33-.71-.33ZM89.36,26.47c-.49,0-.88-.15-1.15-.46-.28-.3-.41-.73-.41-1.28s.13-.98.4-1.3c.27-.33.63-.49,1.08-.49.4,0,.72.14.95.42.23.28.35.65.35,1.13v.25h-2.45c0,.47.11.83.33,1.07.21.25.52.37.92.37.19,0,.36-.01.51-.04.15-.03.33-.09.56-.17v.28c-.19.08-.37.14-.53.17-.16.03-.34.05-.54.05ZM85.42,23.22c-.37,0-.65.13-.84.39-.19.26-.28.64-.28,1.14,0,.96.37,1.45,1.12,1.45.38,0,.66-.11.84-.33.18-.22.27-.59.27-1.11v-.05c0-.53-.09-.9-.26-1.13-.18-.23-.46-.35-.85-.35ZM85.42,22.94c.25,0,.46.04.64.13.18.09.34.24.48.46h.02c-.01-.26-.02-.52-.02-.77v-1.22h.31v4.86h-.2l-.08-.52h-.02c-.26.39-.63.58-1.11.58s-.83-.15-1.07-.44c-.25-.29-.37-.72-.37-1.27,0-.59.12-1.04.37-1.35.25-.31.6-.47,1.07-.47ZM78.9,24.7c0,.47.1.83.31,1.09.2.26.49.39.87.39s.67-.13.87-.39c.2-.26.31-.62.31-1.09s-.1-.83-.31-1.09c-.21-.26-.5-.39-.87-.39s-.66.13-.87.39c-.2.26-.3.62-.3,1.09ZM81.58,24.7c0,.55-.13.99-.4,1.3-.27.31-.64.47-1.11.47-.3,0-.56-.07-.79-.22-.23-.14-.4-.35-.52-.62-.12-.27-.18-.58-.18-.93,0-.55.13-.99.4-1.3.27-.31.64-.46,1.11-.46s.83.16,1.1.47c.27.31.4.74.4,1.29ZM77.52,26.2c.2,0,.37-.02.51-.05v.25c-.15.05-.32.07-.52.07-.3,0-.52-.08-.66-.24-.14-.16-.21-.41-.21-.76v-2.19h-.5v-.18l.5-.14.16-.77h.16v.82h1v.27h-1v2.16c0,.26.05.45.14.58.09.12.24.19.43.19ZM75.22,26.4v-2.2c0-.34-.07-.59-.22-.75-.14-.15-.37-.23-.67-.23-.41,0-.7.1-.89.31-.19.2-.28.54-.28,1v1.87h-.31v-3.4h.26l.06.47h.02c.22-.35.61-.53,1.18-.53.77,0,1.16.41,1.16,1.24v2.22h-.31ZM70.62,23.21c-.33,0-.59.11-.79.32-.2.22-.31.53-.35.94h2.1c0-.4-.09-.7-.26-.93-.17-.22-.41-.33-.71-.33ZM70.72,26.47c-.49,0-.88-.15-1.15-.46-.28-.3-.41-.73-.41-1.28s.13-.98.4-1.3c.27-.33.63-.49,1.08-.49.4,0,.72.14.95.42.23.28.35.65.35,1.13v.25h-2.45c0,.47.11.83.33,1.07.21.25.52.37.92.37.19,0,.36-.01.51-.04.15-.03.33-.09.56-.17v.28c-.19.08-.37.14-.53.17-.16.03-.34.05-.54.05ZM67.94,26.4v-2.23c0-.33-.07-.57-.19-.72-.13-.15-.33-.23-.59-.23-.35,0-.6.1-.77.29-.17.19-.25.49-.25.9v1.99h-.32v-2.32c0-.57-.26-.86-.79-.86-.36,0-.62.1-.78.31-.16.21-.24.54-.24.99v1.87h-.31v-3.4h.26l.07.47h.02c.09-.17.23-.3.4-.39.17-.09.36-.14.57-.14.53,0,.88.2,1.03.6h.01c.11-.19.26-.34.44-.45.19-.1.4-.16.64-.16.37,0,.65.1.83.3.19.2.28.51.28.94v2.22h-.31ZM61.12,26.19c.36,0,.65-.1.86-.31.21-.21.31-.49.31-.86v-.33l-.59.02c-.48.02-.82.1-1.02.22-.2.13-.3.32-.3.59,0,.21.06.38.2.49.13.12.31.18.55.18ZM62.37,26.4l-.08-.54h-.03c-.17.22-.35.37-.53.46-.18.09-.39.14-.64.14-.33,0-.59-.09-.78-.26-.19-.17-.28-.41-.28-.71,0-.33.14-.59.41-.77.28-.18.67-.28,1.2-.29l.65-.02v-.22c0-.32-.06-.57-.2-.73-.13-.16-.34-.25-.63-.25-.31,0-.64.09-.98.26l-.12-.27c.37-.17.74-.26,1.11-.26s.65.1.84.29c.18.19.28.5.28.91v2.26h-.23ZM59.06,26.2c.2,0,.37-.02.51-.05v.25c-.15.05-.32.07-.52.07-.3,0-.52-.08-.66-.24-.14-.16-.21-.41-.21-.76v-2.19h-.5v-.18l.5-.14.16-.77h.16v.82h1v.27h-1v2.16c0,.26.05.45.14.58.09.12.24.19.43.19ZM55.59,26.19c.36,0,.65-.1.86-.31.21-.21.31-.49.31-.86v-.33l-.59.02c-.48.02-.82.1-1.02.22-.2.13-.31.32-.31.59,0,.21.07.38.2.49.13.12.31.18.55.18ZM56.84,26.4l-.08-.54h-.03c-.17.22-.35.37-.53.46-.18.09-.39.14-.64.14-.33,0-.59-.09-.78-.26-.19-.17-.28-.41-.28-.71,0-.33.14-.59.41-.77.28-.18.67-.28,1.2-.29l.65-.02v-.22c0-.32-.07-.57-.2-.73-.13-.16-.34-.25-.63-.25-.31,0-.64.09-.98.26l-.11-.27c.37-.17.74-.26,1.11-.26s.65.1.84.29c.18.19.28.5.28.91v2.26h-.23ZM53.62,22.94c.14,0,.3.01.46.04l-.06.3c-.14-.04-.29-.05-.44-.05-.29,0-.53.12-.71.37-.19.25-.28.56-.28.93v1.87h-.31v-3.4h.26l.03.61h.02c.14-.25.29-.43.45-.53.16-.1.35-.15.57-.15ZM50.2,26.4h-.32v-4.27h-1.48v-.3h3.29v.3h-1.48v4.27Z"/>
      </g>
      <g>
        <path class="cls-1" d="M41.07,5.49c.82,0,1.49.67,1.49,1.49s-.67,1.49-1.49,1.49-1.49-.67-1.49-1.49.67-1.49,1.49-1.49"/>
        <path class="cls-1" d="M36.34.67c.41,0,.75.33.75.75s-.33.75-.75.75-.75-.33-.75-.75.33-.75.75-.75"/>
        <path class="cls-1" d="M42.9,13.09c.41,0,.75.33.75.75s-.33.75-.75.75-.75-.33-.75-.75.33-.75.75-.75"/>
        <path class="cls-1" d="M1.72,25.28c-1.12-.18-1.88-1.24-1.69-2.36.18-1.12,1.24-1.88,2.36-1.69,1.12.18,1.88,1.24,1.69,2.36-.18,1.12-1.24,1.88-2.36,1.69"/>
        <g>
          <path class="cls-2" d="M28.97,1.47c-3.93-1.59-8.46-1.68-12.67.11-4.21,1.79-7.29,5.11-8.88,9.04-1.59,3.93-1.68,8.46.11,12.67,1.79,4.21,5.11,7.29,9.04,8.88,3.93,1.59,8.46,1.68,12.67-.11,4.21-1.79,7.29-5.11,8.88-9.04,1.59-3.93,1.68-8.46-.11-12.67-1.79-4.21-5.11-7.29-9.04-8.88M16.28,1.52c4.22-1.79,8.77-1.7,12.72-.11,3.94,1.59,7.28,4.69,9.07,8.91,1.79,4.22,1.7,8.77.11,12.72-1.59,3.94-4.69,7.28-8.91,9.07-4.22,1.79-8.77,1.7-12.72.11-3.94-1.59-7.28-4.69-9.07-8.91-1.79-4.22-1.7-8.77-.11-12.72,1.59-3.94,4.69-7.28,8.91-9.07Z"/>
          <path class="cls-2" d="M22.78,33.59c-2.13,0-4.25-.41-6.28-1.23-4.15-1.68-7.4-4.87-9.15-8.99-1.75-4.12-1.79-8.68-.11-12.83,1.68-4.15,4.87-7.4,8.99-9.15,4.12-1.75,8.68-1.79,12.83-.11,4.15,1.68,7.4,4.87,9.15,8.99,1.75,4.12,1.79,8.68.11,12.83-1.68,4.15-4.87,7.4-8.99,9.15-2.11.89-4.33,1.34-6.55,1.34ZM22.77.41c-2.17,0-4.35.44-6.41,1.31-4.03,1.71-7.16,4.89-8.8,8.95-1.64,4.06-1.6,8.52.11,12.55,1.71,4.03,4.89,7.16,8.95,8.8,4.06,1.64,8.52,1.6,12.55-.11,4.03-1.71,7.16-4.89,8.8-8.95,1.64-4.06,1.6-8.52-.11-12.55-1.71-4.03-4.89-7.16-8.95-8.8h0c-1.99-.8-4.07-1.2-6.15-1.2Z"/>
        </g>
        <g>
          <path class="cls-2" d="M7.61,10.06c3.75-.8,7.35-1.94,10.83-3.41,3.47-1.47,6.81-3.28,10.01-5.43l.04.05c-3.2,2.15-6.54,3.96-10.02,5.44-3.48,1.47-7.09,2.61-10.84,3.42v-.06Z"/>
          <path class="cls-2" d="M7.51,10.3l-.08-.35.15-.03c3.72-.8,7.36-1.94,10.8-3.4,3.45-1.46,6.81-3.29,9.98-5.42l.12-.08.2.3-.12.08c-3.19,2.14-6.57,3.98-10.04,5.45-3.47,1.47-7.12,2.62-10.87,3.43l-.15.03Z"/>
        </g>
        <g>
          <path class="cls-2" d="M6.44,14.92c4.66-1.19,9.18-2.71,13.56-4.57,4.39-1.86,8.64-4.06,12.75-6.6l.03.05c-4.12,2.54-8.37,4.74-12.76,6.6-4.39,1.86-8.91,3.39-13.57,4.58l-.02-.06Z"/>
          <path class="cls-2" d="M6.35,15.16l-.09-.35.14-.04c4.63-1.18,9.19-2.72,13.54-4.57,4.36-1.85,8.64-4.07,12.73-6.58l.13-.08.19.31-.13.08c-4.1,2.53-8.4,4.75-12.78,6.61-4.37,1.86-8.94,3.4-13.59,4.58l-.14.04Z"/>
        </g>
        <g>
          <path class="cls-2" d="M6.28,18.59c5.14-1.41,10.14-3.14,15.01-5.21,4.87-2.07,9.61-4.47,14.22-7.2l.03.05c-4.61,2.73-9.35,5.13-14.23,7.2-4.87,2.07-9.88,3.81-15.02,5.21l-.02-.06Z"/>
          <path class="cls-2" d="M6.19,18.84l-.09-.35.14-.04c5.11-1.4,10.15-3.15,14.99-5.2,4.85-2.06,9.62-4.48,14.2-7.19l.13-.08.18.31-.13.08c-4.59,2.72-9.38,5.15-14.25,7.21-4.86,2.06-9.92,3.82-15.04,5.22l-.14.04Z"/>
        </g>
        <g>
          <path class="cls-2" d="M7.02,22c5.3-1.57,10.49-3.43,15.56-5.58,5.07-2.15,10.02-4.6,14.86-7.34l.03.05c-4.84,2.74-9.8,5.19-14.87,7.34-5.07,2.15-10.26,4.01-15.57,5.58l-.02-.06Z"/>
          <path class="cls-2" d="M6.94,22.25l-.1-.35.14-.04c5.28-1.56,10.51-3.43,15.54-5.57,5.04-2.14,10.04-4.61,14.85-7.33l.13-.07.18.31-.13.07c-4.82,2.73-9.83,5.2-14.88,7.35-5.05,2.14-10.29,4.02-15.58,5.59l-.14.04Z"/>
        </g>
        <g>
          <path class="cls-2" d="M8.45,25.17c5.24-1.66,10.38-3.56,15.42-5.7,5.05-2.14,10-4.52,14.85-7.15l.03.06c-4.86,2.63-9.81,5.01-14.86,7.15-5.05,2.14-10.19,4.04-15.43,5.7l-.02-.06Z"/>
          <path class="cls-2" d="M8.37,25.41l-.11-.34.14-.04c5.21-1.65,10.39-3.57,15.41-5.7,5.02-2.13,10.01-4.54,14.84-7.14l.13-.07.17.32-.13.07c-4.84,2.61-9.84,5.02-14.87,7.16-5.03,2.13-10.22,4.05-15.44,5.71l-.14.05Z"/>
        </g>
        <g>
          <path class="cls-2" d="M10.59,28.05c4.93-1.67,9.79-3.52,14.58-5.55,4.79-2.03,9.51-4.25,14.15-6.65l.03.06c-4.65,2.4-9.36,4.62-14.16,6.65-4.79,2.03-9.65,3.88-14.59,5.55l-.02-.06Z"/>
          <path class="cls-2" d="M10.51,28.3l-.12-.34.14-.05c4.91-1.66,9.81-3.52,14.57-5.54,4.77-2.02,9.52-4.26,14.14-6.64l.13-.07.16.32-.13.07c-4.62,2.39-9.39,4.63-14.17,6.66-4.77,2.02-9.68,3.89-14.6,5.55l-.14.05Z"/>
        </g>
        <g>
          <path class="cls-2" d="M13.56,30.58c4.35-1.56,8.65-3.24,12.9-5.04,4.25-1.81,8.46-3.73,12.61-5.79l.03.06c-4.16,2.05-8.36,3.98-12.62,5.79-4.25,1.81-8.56,3.49-12.91,5.05l-.02-.06Z"/>
          <path class="cls-2" d="M13.49,30.83l-.12-.34.14-.05c4.33-1.55,8.67-3.25,12.89-5.04,4.24-1.8,8.48-3.74,12.61-5.78l.13-.07.16.32-.13.07c-4.14,2.05-8.39,3.99-12.62,5.79-4.24,1.8-8.58,3.5-12.91,5.05l-.14.05Z"/>
        </g>
        <g>
          <path class="cls-2" d="M17.76,32.6c3.36-1.27,6.69-2.61,10-4.02,3.31-1.4,6.59-2.87,9.85-4.41l.03.06c-3.26,1.53-6.54,3-9.85,4.41-3.31,1.41-6.64,2.74-10,4.02l-.02-.06Z"/>
          <path class="cls-2" d="M17.7,32.85l-.13-.34.14-.05c3.34-1.27,6.7-2.62,9.99-4.02s6.6-2.88,9.84-4.41l.13-.06.15.33-.14.06c-3.25,1.53-6.56,3.01-9.86,4.41-3.3,1.4-6.66,2.75-10.01,4.02l-.14.05Z"/>
        </g>
        <g>
          <path class="cls-2" d="M29.22,32.08c.19-5.84-.65-11.35-2.74-16.46-2.09-5.11-5.42-9.81-10.2-14.05l.04-.05c4.79,4.24,8.13,8.96,10.22,14.07,2.09,5.12,2.94,10.63,2.75,16.48h-.06Z"/>
          <path class="cls-2" d="M29.43,32.24h-.36s0-.16,0-.16c.2-5.97-.72-11.48-2.73-16.39-2.12-5.19-5.54-9.9-10.17-13.99l-.11-.1.24-.27.11.1c4.66,4.13,8.12,8.89,10.26,14.13,2.03,4.96,2.96,10.52,2.76,16.54v.15Z"/>
        </g>
        <g>
          <path class="cls-2" d="M34.48,28.54c.03-5.37-.84-10.44-2.79-15.18-1.94-4.73-4.95-9.12-9.2-13.11l.04-.05c4.25,3.99,7.27,8.39,9.22,13.13,1.95,4.74,2.82,9.82,2.79,15.2h-.06Z"/>
          <path class="cls-2" d="M34.69,28.69h-.36s0-.15,0-.15c.03-5.47-.9-10.56-2.78-15.12-1.97-4.8-5.06-9.2-9.16-13.06l-.11-.1.25-.26.11.1c4.15,3.9,7.26,8.33,9.25,13.18,1.89,4.6,2.83,9.74,2.8,15.26v.15Z"/>
        </g>
        <g>
          <path class="cls-2" d="M38.44,22.17c-.37-3.72-1.22-7.29-2.63-10.68-1.41-3.39-3.36-6.6-5.93-9.62l.05-.04c2.57,3.02,4.53,6.24,5.94,9.63,1.41,3.4,2.26,6.97,2.63,10.7h-.06Z"/>
          <path class="cls-2" d="M38.31,22.33v-.15c-.38-3.77-1.26-7.34-2.63-10.64-1.42-3.42-3.4-6.64-5.9-9.58l-.1-.11.27-.23.1.11c2.53,2.97,4.53,6.22,5.96,9.67,1.38,3.33,2.27,6.94,2.64,10.74v.15s-.34.03-.34.03Z"/>
        </g>
        <path class="cls-1" d="M15.92,1.76C4.47,7.36,4.89,18.35,7.17,23.49c2.21,4.95,9.05,13.24,21.68,8.74C21.62,22.36,17.22,12.23,15.92,1.76"/>
      </g>
    </g>
  </g>
</svg>