<?xml version="1.0" encoding="UTF-8"?>
<svg id="Camada_1" xmlns="http://www.w3.org/2000/svg" viewBox="0 0 80 80">
  <defs>
    <style>
      .cls-1 {
        fill: #fff;
      }

      .cls-2 {
        fill-rule: evenodd;
      }

      .cls-2, .cls-3 {
        fill: #0b2d4d;
      }
    </style>
  </defs>
  <rect class="cls-1" width="80" height="80" rx="6.26" ry="6.26"/>
  <g>
    <path class="cls-2" d="M74,20.03c1.46,0,2.64,1.18,2.64,2.64s-1.18,2.64-2.64,2.64-2.64-1.18-2.64-2.64,1.18-2.64,2.64-2.64"/>
    <path class="cls-2" d="M65.63,11.51c.73,0,1.32.59,1.32,1.32s-.59,1.32-1.32,1.32-1.32-.59-1.32-1.32.59-1.32,1.32-1.32"/>
    <path class="cls-2" d="M77.23,33.45c.73,0,1.32.59,1.32,1.32s-.59,1.32-1.32,1.32-1.32-.59-1.32-1.32.59-1.32,1.32-1.32"/>
    <path class="cls-2" d="M4.49,54.99c-1.98-.33-3.32-2.19-2.99-4.17.33-1.98,2.19-3.32,4.17-2.99,1.98.33,3.32,2.19,2.99,4.17-.33,1.98-2.19,3.32-4.17,2.99"/>
    <g>
      <path class="cls-3" d="M52.63,12.93c-6.94-2.8-14.95-2.96-22.38.19-7.43,3.15-12.88,9.02-15.68,15.96-2.8,6.94-2.96,14.95.19,22.38,3.15,7.43,9.02,12.88,15.96,15.68,6.94,2.8,14.95,2.96,22.38-.19,7.43-3.15,12.88-9.02,15.68-15.96,2.8-6.94,2.96-14.95-.19-22.38-3.15-7.43-9.02-12.88-15.96-15.68M30.21,13.02c7.46-3.17,15.5-3.01,22.46-.2,6.96,2.81,12.86,8.28,16.02,15.74,3.17,7.46,3.01,15.5.2,22.46-2.81,6.96-8.28,12.86-15.74,16.02-7.46,3.17-15.5,3.01-22.46.2-6.96-2.81-12.86-8.28-16.02-15.74-3.17-7.46-3.01-15.5-.2-22.46,2.81-6.96,8.28-12.86,15.74-16.02Z"/>
      <path class="cls-3" d="M41.68,69.67c-3.75,0-7.51-.72-11.1-2.17-7.33-2.96-13.07-8.6-16.17-15.89-3.09-7.28-3.16-15.33-.2-22.66,2.96-7.33,8.6-13.07,15.89-16.17h0c7.28-3.09,15.33-3.16,22.66-.2,7.33,2.96,13.07,8.6,16.16,15.89,3.09,7.28,3.16,15.33.2,22.66-2.96,7.33-8.61,13.07-15.89,16.17-3.72,1.58-7.64,2.37-11.57,2.37ZM41.68,11.05c-3.84,0-7.68.77-11.32,2.32-7.12,3.02-12.64,8.64-15.54,15.82s-2.83,15.05.19,22.18,8.64,12.64,15.82,15.54c7.18,2.9,15.05,2.83,22.18-.19,7.12-3.02,12.64-8.64,15.54-15.82,2.9-7.18,2.83-15.05-.19-22.18-3.02-7.12-8.64-12.64-15.82-15.54h0c-3.51-1.42-7.18-2.13-10.86-2.13Z"/>
    </g>
    <g>
      <path class="cls-3" d="M14.9,28.1c6.62-1.42,12.99-3.43,19.13-6.03,6.13-2.6,12.03-5.8,17.68-9.59l.06.09c-5.66,3.8-11.56,7-17.7,9.6-6.14,2.61-12.52,4.62-19.15,6.04l-.02-.11Z"/>
      <path class="cls-3" d="M14.72,28.52l-.13-.62.26-.05c6.57-1.41,12.99-3.43,19.08-6.01,6.09-2.59,12.03-5.8,17.63-9.57l.22-.15.35.53-.22.15c-5.64,3.79-11.61,7.03-17.74,9.63-6.12,2.6-12.58,4.63-19.19,6.05l-.26.06Z"/>
    </g>
    <g>
      <path class="cls-3" d="M12.83,36.68c8.22-2.1,16.21-4.79,23.96-8.08,7.75-3.29,15.26-7.17,22.52-11.65l.06.09c-7.27,4.48-14.79,8.37-22.54,11.66-7.75,3.29-15.74,5.98-23.97,8.09l-.03-.11Z"/>
      <path class="cls-3" d="M12.66,37.11l-.16-.62.25-.06c8.18-2.09,16.23-4.8,23.92-8.07,7.7-3.27,15.27-7.18,22.49-11.63l.22-.14.33.54-.22.14c-7.25,4.47-14.84,8.4-22.57,11.68-7.72,3.28-15.8,6-24.01,8.1l-.26.07Z"/>
    </g>
    <g>
      <path class="cls-3" d="M12.54,43.18c9.07-2.48,17.91-5.55,26.52-9.2,8.61-3.65,16.98-7.89,25.12-12.72l.06.1c-8.14,4.83-16.52,9.07-25.13,12.72-8.61,3.65-17.46,6.72-26.53,9.21l-.03-.11Z"/>
      <path class="cls-3" d="M12.39,43.61l-.17-.62.25-.07c9.02-2.47,17.93-5.56,26.49-9.19,8.56-3.63,17-7.91,25.09-12.7l.23-.13.33.55-.23.13c-8.11,4.81-16.57,9.09-25.16,12.74-8.58,3.64-17.52,6.74-26.57,9.22l-.25.07Z"/>
    </g>
    <g>
      <path class="cls-3" d="M13.86,49.2c9.37-2.77,18.53-6.05,27.48-9.85,8.96-3.8,17.71-8.12,26.25-12.96l.05.1c-8.55,4.84-17.31,9.16-26.27,12.96-8.96,3.8-18.13,7.09-27.5,9.86l-.03-.11Z"/>
      <path class="cls-3" d="M13.71,49.63l-.18-.61.25-.07c9.32-2.76,18.56-6.07,27.46-9.84,8.91-3.78,17.74-8.14,26.23-12.95l.23-.13.32.55-.23.13c-8.51,4.82-17.36,9.19-26.29,12.98-8.93,3.79-18.19,7.11-27.53,9.87l-.25.08Z"/>
    </g>
    <g>
      <path class="cls-3" d="M16.38,54.79c9.25-2.93,18.33-6.29,27.25-10.07,8.91-3.78,17.66-7.99,26.24-12.63l.05.1c-8.58,4.64-17.33,8.85-26.25,12.64-8.92,3.79-18,7.14-27.26,10.08l-.03-.11Z"/>
      <path class="cls-3" d="M16.24,55.22l-.19-.61.25-.08c9.2-2.92,18.36-6.3,27.22-10.06,8.87-3.77,17.69-8.01,26.22-12.62l.23-.13.3.56-.23.12c-8.54,4.62-17.38,8.87-26.27,12.65-8.88,3.77-18.06,7.16-27.28,10.08l-.25.08Z"/>
    </g>
    <g>
      <path class="cls-3" d="M20.15,59.88c8.71-2.94,17.3-6.21,25.76-9.8,8.46-3.59,16.79-7.51,25-11.75l.05.1c-8.21,4.24-16.54,8.16-25,11.75-8.46,3.59-17.05,6.86-25.77,9.8l-.04-.11Z"/>
      <path class="cls-3" d="M20.02,60.32l-.2-.6.25-.08c8.67-2.93,17.33-6.22,25.74-9.79,8.42-3.57,16.82-7.52,24.98-11.74l.23-.12.29.57-.23.12c-8.17,4.22-16.59,8.18-25.02,11.76-8.42,3.57-17.1,6.88-25.78,9.81l-.25.08Z"/>
    </g>
    <g>
      <path class="cls-3" d="M25.41,64.36c7.68-2.75,15.28-5.72,22.79-8.91,7.51-3.19,14.94-6.6,22.28-10.22l.05.1c-7.34,3.63-14.77,7.04-22.29,10.23-7.52,3.19-15.11,6.16-22.8,8.91l-.04-.1Z"/>
      <path class="cls-3" d="M25.29,64.8l-.21-.6.25-.09c7.64-2.74,15.3-5.73,22.78-8.9,7.48-3.17,14.97-6.61,22.27-10.22l.24-.12.28.57-.24.12c-7.32,3.61-14.82,7.06-22.3,10.23-7.48,3.18-15.16,6.18-22.81,8.92l-.25.09Z"/>
    </g>
    <g>
      <path class="cls-3" d="M32.82,67.91c5.93-2.25,11.82-4.62,17.66-7.1,5.84-2.48,11.64-5.08,17.4-7.79l.05.1c-5.76,2.71-11.56,5.31-17.4,7.79-5.85,2.48-11.74,4.85-17.67,7.1l-.04-.1Z"/>
      <path class="cls-3" d="M32.71,68.36l-.23-.6.25-.09c5.91-2.24,11.85-4.63,17.66-7.09,5.81-2.47,11.66-5.09,17.39-7.78l.24-.11.27.58-.24.11c-5.73,2.7-11.59,5.32-17.41,7.79-5.83,2.47-11.78,4.86-17.68,7.1l-.25.09Z"/>
    </g>
    <g>
      <path class="cls-3" d="M53.07,67c.34-10.32-1.16-20.05-4.85-29.07-3.69-9.02-9.58-17.33-18.03-24.82l.07-.08c8.46,7.5,14.36,15.82,18.06,24.86,3.7,9.04,5.19,18.78,4.86,29.11h-.11Z"/>
      <path class="cls-3" d="M53.44,67.28l-.64-.02v-.26c.35-10.54-1.27-20.29-4.82-28.96-3.75-9.17-9.79-17.49-17.96-24.72l-.2-.17.42-.48.2.18c8.24,7.3,14.34,15.69,18.13,24.96,3.58,8.76,5.22,18.59,4.87,29.22v.26Z"/>
    </g>
    <g>
      <path class="cls-3" d="M62.35,60.75c.05-9.48-1.49-18.45-4.92-26.81-3.43-8.36-8.75-16.11-16.25-23.15l.08-.08c7.51,7.06,12.84,14.82,16.28,23.19,3.44,8.37,4.98,17.35,4.93,26.85h-.11Z"/>
      <path class="cls-3" d="M62.73,61.01h-.64s0-.27,0-.27c.05-9.66-1.6-18.65-4.9-26.71-3.48-8.48-8.93-16.24-16.19-23.06l-.19-.18.44-.46.19.18c7.33,6.88,12.82,14.72,16.34,23.28,3.34,8.13,5.01,17.2,4.95,26.95v.26Z"/>
    </g>
    <g>
      <path class="cls-3" d="M69.35,49.49c-.64-6.58-2.16-12.88-4.64-18.87-2.48-5.99-5.94-11.66-10.47-16.99l.08-.07c4.54,5.34,8,11.02,10.49,17.02,2.49,6,4,12.31,4.65,18.9h-.11Z"/>
      <path class="cls-3" d="M69.12,49.78l-.03-.26c-.65-6.65-2.21-12.97-4.62-18.8-2.5-6.04-6.01-11.73-10.43-16.92l-.17-.2.49-.41.17.2c4.46,5.24,8,10.99,10.53,17.09,2.44,5.88,4.01,12.26,4.66,18.98l.03.26-.63.06Z"/>
    </g>
    <path class="cls-2" d="M29.57,13.44c-20.22,9.89-19.49,29.31-15.44,38.38,3.9,8.74,16,23.38,38.29,15.45-12.78-17.44-20.55-35.33-22.85-53.82"/>
  </g>
</svg>